<svg width="17" height="16" viewBox="0 0 17 16" fill="none" xmlns="http://www.w3.org/2000/svg">
<path fill-rule="evenodd" clip-rule="evenodd" d="M7.92183 0.0110629C6.90972 0.10971 6.09197 0.313695 5.29541 0.666229C4.70953 0.925495 4.00741 1.33281 3.841 1.50994C3.67545 1.68616 3.78422 1.97431 4.03079 2.0128C4.12481 2.02747 4.18241 2.00129 4.48248 1.80753C4.88544 1.5473 5.51053 1.23369 5.95202 1.0702C6.26744 0.953385 7.04514 0.743365 7.16224 0.743365C7.22433 0.743365 7.22443 0.744991 7.16824 0.829349C6.66184 1.58938 6.30615 2.52961 6.01655 3.87368L5.96525 4.11181L5.75604 4.16343C5.29854 4.27631 4.95182 4.60348 4.79949 5.06601C4.78267 5.11714 4.68077 5.12073 3.2484 5.12073C2.40523 5.12073 1.71535 5.11176 1.71535 5.10075C1.71535 5.04481 2.07746 4.34997 2.23448 4.10456C2.45863 3.7543 2.47395 3.63274 2.31208 3.48813C2.22241 3.40799 2.18864 3.39642 2.0849 3.41034C1.92412 3.43191 1.89999 3.45524 1.69491 3.78676C0.0448269 6.4543 0.10833 9.85604 1.85684 12.4624L1.98985 12.6607L1.89789 12.839C1.77098 13.085 1.72392 13.3794 1.7692 13.6437C1.92028 14.5256 2.86954 15.0066 3.65728 14.6004L3.83422 14.5091L4.11146 14.6887C5.38246 15.5124 6.72025 15.9355 8.23181 15.9917C11.0217 16.0955 13.6531 14.7251 15.2116 12.3568C16.0964 11.0124 16.5552 9.35718 16.4947 7.72883C16.4385 6.21726 16.0154 4.87948 15.1917 3.60848L15.0121 3.33123L15.1033 3.15429C15.2296 2.90947 15.2766 2.61478 15.2313 2.35089C15.0801 1.46819 14.131 0.987966 13.342 1.3949L13.1637 1.48686L12.9654 1.35385C11.9704 0.686334 10.8522 0.257071 9.62588 0.0717832C9.31443 0.0247265 8.19195 -0.0152639 7.92183 0.0110629ZM8.77395 0.69537C9.45998 1.01476 10.1458 2.5656 10.4684 4.52666C10.5038 4.74162 10.5404 4.96336 10.5498 5.0194L10.5668 5.12129L8.95198 5.1132L7.33711 5.1051L7.27999 4.95461C7.17359 4.67424 6.97614 4.46297 6.59615 4.223C6.57776 4.2114 6.67625 3.75724 6.80154 3.27598C7.21376 1.69219 7.89995 0.618923 8.50027 0.618923C8.56046 0.618923 8.68362 0.653316 8.77395 0.69537ZM10.3187 0.848891C10.5481 0.906922 10.8766 1.00651 11.0485 1.0702C11.7617 1.33428 12.7812 1.90656 12.7376 2.0183C12.6618 2.21272 12.6214 2.46642 12.6368 2.65068C12.713 3.56086 13.6077 4.09971 14.4789 3.76009C14.5208 3.74371 14.5715 3.79902 14.7129 4.0157C14.8837 4.27737 15.2852 5.03312 15.2852 5.0929C15.2852 5.10888 14.4149 5.12073 13.2432 5.12073H11.2012L11.1157 4.59701C10.8667 3.07172 10.4536 1.79878 9.9564 1.02477C9.88461 0.912988 9.8152 0.80396 9.80219 0.782449C9.76499 0.721009 9.86313 0.733641 10.3187 0.848891ZM14.2571 1.95633C14.7671 2.22273 14.7374 2.94374 14.2065 3.18622C13.7515 3.39405 13.2113 2.99968 13.2598 2.49506C13.2928 2.15194 13.6005 1.86897 13.9407 1.86897C14.0433 1.86897 14.1422 1.89627 14.2571 1.95633ZM2.79094 2.41302C2.67397 2.52999 2.65658 2.63076 2.72918 2.77118C2.8368 2.97926 3.15779 2.97926 3.26541 2.77118C3.34839 2.61069 3.29783 2.42818 3.1491 2.35127C3.00868 2.27866 2.90791 2.29605 2.79094 2.41302ZM6.36446 4.82473C6.69148 4.98769 6.83731 5.37843 6.69082 5.69917C6.44716 6.23261 5.72837 6.25969 5.45819 5.7456C5.38227 5.60112 5.37002 5.54615 5.38046 5.39672C5.41532 4.89799 5.92125 4.60389 6.36446 4.82473ZM4.79949 5.80079C4.91255 6.1441 5.17582 6.45733 5.47348 6.60275L5.65154 6.68974L5.63366 7.55455C5.61765 8.328 5.63994 9.06674 5.7067 9.97492L5.7268 10.2485H3.59843H1.47007L1.43717 10.1469C1.36879 9.93565 1.24766 9.38891 1.19445 9.05132C1.15314 8.78909 1.13945 8.51963 1.14007 7.98165C1.14111 7.12735 1.20189 6.68176 1.4227 5.91022L1.46966 5.74607H3.12555C4.67492 5.74607 4.78264 5.7496 4.79949 5.80079ZM10.6411 5.78515C10.7058 5.9847 10.7709 7.99603 10.7371 8.75194L10.7139 9.27207L10.6107 9.28883C10.4213 9.31956 10.161 9.47302 9.9846 9.658C9.82877 9.82133 9.65824 10.1088 9.65746 10.2094C9.65699 10.2666 6.37803 10.2666 6.35949 10.2094C6.29483 10.0101 6.22961 7.99876 6.26334 7.24419L6.28651 6.72557L6.43913 6.68645C6.63186 6.63708 6.92564 6.44857 7.05705 6.29002C7.14792 6.18037 7.27567 5.94574 7.32342 5.80079C7.34027 5.7496 7.44739 5.74607 8.98491 5.74607C10.2721 5.74607 10.6311 5.75454 10.6411 5.78515ZM15.5634 5.84769C15.6322 6.06018 15.753 6.60635 15.8057 6.94325C15.8833 7.43877 15.8835 8.53458 15.8061 9.02909C15.7486 9.39698 15.6633 9.79238 15.5785 10.0844L15.5309 10.2485H13.8673H12.2037L12.1141 10.043C12.0006 9.78231 11.777 9.53677 11.5365 9.40858L11.3489 9.30862L11.3669 8.4419C11.3829 7.66651 11.3607 6.92861 11.2938 6.01965L11.2737 5.74607H13.4021H15.5305L15.5634 5.84769ZM11.2225 9.95928C11.3336 10.0156 11.4245 10.092 11.4861 10.1808C11.571 10.3033 11.5801 10.34 11.5801 10.5612C11.5801 10.7823 11.571 10.819 11.4861 10.9415C11.3762 11.1 11.1119 11.2491 10.9413 11.2489C10.546 11.2483 10.239 10.9476 10.239 10.5612C10.239 10.0434 10.7598 9.72466 11.2225 9.95928ZM5.88483 11.3976C6.13878 12.9531 6.55359 14.216 7.07366 15.0167C7.19131 15.1978 7.20654 15.2371 7.16208 15.2446C7.07766 15.2587 6.29717 15.0522 5.95202 14.9244C5.23888 14.6603 4.21936 14.088 4.26292 13.9763C4.33871 13.7819 4.37914 13.5281 4.36372 13.3439C4.28756 12.4337 3.39285 11.8949 2.52167 12.2345C2.47971 12.2509 2.42908 12.1956 2.28766 11.9789C2.11688 11.7172 1.71535 10.9615 1.71535 10.9017C1.71535 10.8857 2.58567 10.8738 3.75733 10.8738H5.79931L5.88483 11.3976ZM9.65746 10.9129C9.65762 10.9344 9.69229 11.0262 9.7345 11.1168C9.8293 11.3205 10.0815 11.5919 10.2677 11.6907C10.3446 11.7315 10.4076 11.781 10.4076 11.8006C10.4076 11.8728 10.2176 12.6705 10.1232 12.9946C9.77161 14.2022 9.2629 15.0715 8.77501 15.2987C8.56668 15.3957 8.43411 15.3958 8.22659 15.2992C7.53978 14.9794 6.87977 13.488 6.53114 11.4679C6.47921 11.167 6.43672 10.9102 6.43669 10.8973C6.43666 10.8844 7.16127 10.8738 8.0469 10.8738C9.31409 10.8738 9.65721 10.8822 9.65746 10.9129ZM15.2852 10.8943C15.2852 10.9361 14.9151 11.649 14.7842 11.8594C14.2022 12.795 13.298 13.6992 12.3624 14.2812C12.0346 14.4852 11.4631 14.7647 11.0784 14.9093C10.7373 15.0375 9.96309 15.2512 9.83981 15.2512C9.77609 15.2512 9.77596 15.2498 9.8323 15.1652C10.334 14.4122 10.7051 13.4319 10.9844 12.1215L11.035 11.884L11.2294 11.83C11.6478 11.7137 11.9492 11.458 12.1141 11.0794L12.2037 10.8738H13.7444C14.5918 10.8738 15.2852 10.883 15.2852 10.8943ZM3.37625 12.8372C3.8996 13.1106 3.84741 13.8691 3.29064 14.0818C2.8445 14.2522 2.34538 13.8796 2.37884 13.401C2.40416 13.0389 2.70639 12.7499 3.05983 12.7499C3.16242 12.7499 3.26128 12.7772 3.37625 12.8372Z" fill="#8E2424"/>
</svg>
